<svg xmlns="http://www.w3.org/2000/svg" width="80" height="80" viewBox="0 0 80 80">
    <g fill="none" fill-rule="evenodd">
        <circle cx="40" cy="40" r="40" fill="#FFF"/>
        <g fill-rule="nonzero">
            <path fill="#2DB7E3" d="M36.388 54.306a4.78 4.78 0 1 1-9.561 0H22.78v-4.047a4.78 4.78 0 1 1 0-9.56v-4.047h4.056a4.78 4.78 0 1 0 9.558 0h4.04v4.047a4.78 4.78 0 0 1 0 9.56v4.047h-4.046z"/>
            <path fill="#2DB7E3" d="M58.086 23.047a4.78 4.78 0 0 1 0 9.56v4.047H40.432v-4.049a4.78 4.78 0 1 0 0-9.558V19h4.047a4.78 4.78 0 1 0 9.56 0h4.047v4.047z"/>
            <path fill="#3740C7" d="M44.479 36.654a4.78 4.78 0 1 1 9.56 0h4.047v4.047a4.78 4.78 0 0 1 0 9.56v4.045H54.04v.002a4.78 4.78 0 1 1-9.56-.002h-4.047v-4.047a4.78 4.78 0 1 0 0-9.558v-4.047h4.047z"/>
            <path fill="#3740C7" d="M26.827 36.654H22.78v-4.049a4.78 4.78 0 1 0 0-9.558V19h4.047a4.78 4.78 0 0 0 4.78 4.78A4.78 4.78 0 0 0 36.394 19h4.04v4.047a4.78 4.78 0 0 1 0 9.56v4.047h-4.046a4.78 4.78 0 1 1-9.561 0z"/>
        </g>
    </g>
</svg>
