<svg xmlns="http://www.w3.org/2000/svg" width="80" height="80" viewBox="0 0 80 80">
    <g fill="none" fill-rule="evenodd">
        <circle cx="40" cy="40" r="40" fill="#FFF"/>
        <g fill-rule="nonzero">
            <path fill="#2DB7E3" d="M53.196 43.177c-4.953.006-8.967 3.795-8.967 8.469h-8.667c0-4.413 1.86-8.646 5.17-11.765 3.306-3.118 7.79-4.869 12.464-4.87V30.53l11.593 7.878-11.593 7.878v-3.108z"/>
            <path fill="#2DB7E3" d="M26.593 35.012c4.675 0 9.16 1.75 12.467 4.869 3.309 3.12 5.169 7.352 5.17 11.765h-8.668c0-4.675-4.015-8.465-8.97-8.469v3.108L15 38.407l11.593-7.878v4.483z"/>
            <path fill="#3740C7" d="M44.23 30.593v28.414h-7.668V30.593h-4.95L39.99 19l8.378 11.593h-4.139z"/>
        </g>
    </g>
</svg>
