<svg xmlns="http://www.w3.org/2000/svg" width="226" height="367" viewBox="0 0 226 367">
    <g fill="#2C33A2" fill-rule="nonzero" transform="matrix(1 0 0 -1 0 438)">
        <circle cx="101.11" cy="77.05" r="5.91"/>
        <circle cx="101.11" cy="100.69" r="5.91"/>
        <circle cx="101.11" cy="171.62" r="5.91"/>
        <circle cx="101.11" cy="195.26" r="5.91"/>
        <circle cx="101.11" cy="218.9" r="5.91"/>
        <circle cx="101.11" cy="242.54" r="2.88"/>
        <circle cx="124.76" cy="77.05" r="5.91"/>
        <circle cx="124.76" cy="100.69" r="5.91"/>
        <circle cx="124.76" cy="124.33" r="5.91"/>
        <circle cx="124.76" cy="171.62" r="5.91"/>
        <circle cx="124.76" cy="195.26" r="5.91"/>
        <circle cx="124.76" cy="218.9" r="5.91"/>
        <circle cx="124.76" cy="242.54" r="5.91"/>
        <circle cx="148.4" cy="77.05" r="5.91"/>
        <circle cx="148.4" cy="100.69" r="5.91"/>
        <circle cx="148.4" cy="124.33" r="5.91"/>
        <circle cx="148.4" cy="147.97" r="2.88"/>
        <circle cx="148.4" cy="171.62" r="5.91"/>
        <circle cx="148.4" cy="195.26" r="5.91"/>
        <circle cx="148.4" cy="218.9" r="5.91"/>
        <circle cx="148.4" cy="242.54" r="5.91"/>
        <circle cx="172.04" cy="77.05" r="5.91"/>
        <circle cx="172.04" cy="100.69" r="5.91"/>
        <circle cx="172.04" cy="124.33" r="5.91"/>
        <circle cx="172.04" cy="147.97" r="5.91"/>
        <circle cx="172.04" cy="171.62" r="5.91"/>
        <circle cx="172.04" cy="195.26" r="5.91"/>
        <circle cx="172.04" cy="218.9" r="5.91"/>
        <circle cx="172.04" cy="242.54" r="5.91"/>
        <circle cx="195.68" cy="100.69" r="5.91"/>
        <circle cx="195.68" cy="124.33" r="5.91"/>
        <circle cx="195.68" cy="147.97" r="5.91"/>
        <circle cx="195.68" cy="171.62" r="5.91"/>
        <circle cx="195.68" cy="195.26" r="5.91"/>
        <circle cx="195.68" cy="218.9" r="2.88"/>
        <circle cx="195.68" cy="242.54" r="5.91"/>
        <circle cx="195.68" cy="266.18" r="5.91"/>
        <circle cx="195.68" cy="289.83" r="5.91"/>
        <circle cx="219.32" cy="100.69" r="5.91"/>
        <circle cx="219.32" cy="124.33" r="5.91"/>
        <circle cx="219.32" cy="147.97" r="2.88"/>
        <circle cx="219.32" cy="171.62" r="5.91"/>
        <circle cx="219.32" cy="195.26" r="5.91"/>
        <circle cx="219.32" cy="218.9" r="5.91"/>
        <circle cx="219.32" cy="242.54" r="5.91"/>
        <circle cx="219.32" cy="266.18" r="5.91"/>
        <circle cx="219.32" cy="289.83" r="5.91"/>
        <circle cx="6.48" cy="195.26" r="5.91"/>
        <circle cx="6.48" cy="218.9" r="2.88"/>
        <circle cx="6.48" cy="242.54" r="5.91"/>
        <circle cx="30.12" cy="100.69" r="5.91"/>
        <circle cx="30.12" cy="171.62" r="5.91"/>
        <circle cx="30.12" cy="195.26" r="5.91"/>
        <circle cx="30.12" cy="218.9" r="5.91"/>
        <circle cx="30.12" cy="242.54" r="5.91"/>
        <circle cx="30.12" cy="266.18" r="5.91"/>
        <circle cx="53.76" cy="77.05" r="5.91"/>
        <circle cx="53.76" cy="100.69" r="5.91"/>
        <circle cx="53.76" cy="171.62" r="5.91"/>
        <circle cx="53.76" cy="195.26" r="5.91"/>
        <circle cx="53.76" cy="218.9" r="2.88"/>
        <circle cx="53.76" cy="242.54" r="5.91"/>
        <circle cx="53.76" cy="266.18" r="5.91"/>
        <circle cx="77.41" cy="77.05" r="5.91"/>
        <circle cx="77.41" cy="100.69" r="2.88"/>
        <circle cx="77.41" cy="171.62" r="5.91"/>
        <circle cx="77.41" cy="195.26" r="5.91"/>
        <circle cx="77.41" cy="218.9" r="5.91"/>
        <circle cx="77.41" cy="242.54" r="5.91"/>
        <circle cx="77.41" cy="266.18" r="5.91"/>
        <circle cx="101.11" cy="313.47" r="5.91"/>
        <circle cx="101.11" cy="337.11" r="5.91"/>
        <circle cx="101.11" cy="408.04" r="2.88"/>
        <circle cx="101.11" cy="431.68" r="5.91"/>
        <circle cx="124.76" cy="313.47" r="5.91"/>
        <circle cx="124.76" cy="337.11" r="5.91"/>
        <circle cx="124.76" cy="360.75" r="5.91"/>
        <circle cx="124.76" cy="384.39" r="5.91"/>
        <circle cx="124.76" cy="408.04" r="5.91"/>
        <circle cx="124.76" cy="431.68" r="5.91"/>
        <circle cx="148.4" cy="313.47" r="2.88"/>
        <circle cx="148.4" cy="337.11" r="5.91"/>
        <circle cx="148.4" cy="360.75" r="5.91"/>
        <circle cx="148.4" cy="384.39" r="5.91"/>
        <circle cx="148.4" cy="408.04" r="5.91"/>
        <circle cx="148.4" cy="431.68" r="5.91"/>
        <circle cx="172.04" cy="313.47" r="5.91"/>
        <circle cx="172.04" cy="337.11" r="5.91"/>
        <circle cx="172.04" cy="360.75" r="5.91"/>
        <circle cx="172.04" cy="384.39" r="5.91"/>
        <circle cx="172.04" cy="408.04" r="5.91"/>
        <circle cx="172.04" cy="431.68" r="5.91"/>
        <circle cx="195.68" cy="313.47" r="5.91"/>
        <circle cx="195.68" cy="337.11" r="5.91"/>
        <circle cx="195.68" cy="360.75" r="5.91"/>
        <circle cx="195.68" cy="384.39" r="2.88"/>
        <circle cx="195.68" cy="408.04" r="5.91"/>
        <circle cx="195.68" cy="431.68" r="5.91"/>
        <circle cx="219.32" cy="313.47" r="2.88"/>
        <circle cx="219.32" cy="337.11" r="5.91"/>
        <circle cx="219.32" cy="360.75" r="5.91"/>
        <circle cx="219.32" cy="384.39" r="5.91"/>
        <circle cx="219.32" cy="408.04" r="5.91"/>
        <circle cx="219.32" cy="431.68" r="5.91"/>
        <circle cx="6.48" cy="313.47" r="5.91"/>
        <circle cx="6.48" cy="360.75" r="5.91"/>
        <circle cx="30.12" cy="313.47" r="2.88"/>
        <circle cx="30.12" cy="337.11" r="5.91"/>
        <circle cx="30.12" cy="360.75" r="5.91"/>
        <circle cx="30.12" cy="384.39" r="5.91"/>
        <circle cx="30.12" cy="408.04" r="5.91"/>
        <circle cx="53.76" cy="337.11" r="5.91"/>
        <circle cx="53.76" cy="360.75" r="5.91"/>
        <circle cx="53.76" cy="384.39" r="2.88"/>
        <circle cx="53.76" cy="408.04" r="5.91"/>
        <circle cx="53.76" cy="431.68" r="5.91"/>
        <circle cx="77.41" cy="313.47" r="5.91"/>
        <circle cx="77.41" cy="337.11" r="5.91"/>
    </g>
</svg>
