<svg xmlns="http://www.w3.org/2000/svg" width="225" height="367" viewBox="0 0 225 367">
    <g fill="#2C33A2" fill-rule="nonzero" transform="matrix(1 0 0 -1 -308 438)">
        <circle cx="479.52" cy="100.69" r="5.91"/>
        <circle cx="479.52" cy="124.33" r="5.91"/>
        <circle cx="479.52" cy="218.9" r="5.91"/>
        <circle cx="479.52" cy="266.18" r="5.91"/>
        <circle cx="479.52" cy="289.83" r="5.91"/>
        <circle cx="503.16" cy="100.69" r="5.91"/>
        <circle cx="503.16" cy="124.33" r="5.91"/>
        <circle cx="503.16" cy="218.9" r="5.91"/>
        <circle cx="503.16" cy="266.18" r="5.91"/>
        <circle cx="503.16" cy="289.83" r="5.91"/>
        <circle cx="526.8" cy="124.33" r="5.91"/>
        <circle cx="526.8" cy="147.97" r="2.88"/>
        <circle cx="526.8" cy="171.62" r="5.91"/>
        <circle cx="526.8" cy="195.26" r="5.91"/>
        <circle cx="526.8" cy="266.18" r="5.91"/>
        <circle cx="526.8" cy="289.83" r="5.91"/>
        <circle cx="313.96" cy="77.05" r="5.91"/>
        <circle cx="313.96" cy="100.69" r="5.91"/>
        <circle cx="313.96" cy="124.33" r="5.91"/>
        <circle cx="313.96" cy="147.97" r="5.91"/>
        <circle cx="313.96" cy="171.62" r="5.91"/>
        <circle cx="313.96" cy="195.26" r="5.91"/>
        <circle cx="313.96" cy="218.9" r="5.91"/>
        <circle cx="313.96" cy="242.54" r="5.91"/>
        <circle cx="313.96" cy="266.18" r="5.91"/>
        <circle cx="313.96" cy="289.83" r="5.91"/>
        <circle cx="337.6" cy="77.05" r="5.91"/>
        <circle cx="337.6" cy="100.69" r="5.91"/>
        <circle cx="337.6" cy="124.33" r="5.91"/>
        <circle cx="337.6" cy="147.97" r="2.88"/>
        <circle cx="337.6" cy="171.62" r="5.91"/>
        <circle cx="337.6" cy="195.26" r="5.91"/>
        <circle cx="337.6" cy="218.9" r="5.91"/>
        <circle cx="337.6" cy="242.54" r="5.91"/>
        <circle cx="337.6" cy="266.18" r="5.91"/>
        <circle cx="337.6" cy="289.83" r="5.91"/>
        <circle cx="361.24" cy="77.05" r="5.91"/>
        <circle cx="361.24" cy="100.69" r="5.91"/>
        <circle cx="361.24" cy="124.33" r="5.91"/>
        <circle cx="361.24" cy="147.97" r="5.91"/>
        <circle cx="361.24" cy="171.62" r="5.91"/>
        <circle cx="361.24" cy="195.26" r="5.91"/>
        <circle cx="361.24" cy="218.9" r="5.91"/>
        <circle cx="361.24" cy="242.54" r="5.91"/>
        <circle cx="361.24" cy="266.18" r="5.91"/>
        <circle cx="361.24" cy="289.83" r="5.91"/>
        <circle cx="384.89" cy="77.05" r="5.91"/>
        <circle cx="384.89" cy="100.69" r="5.91"/>
        <circle cx="384.89" cy="124.33" r="5.91"/>
        <circle cx="384.89" cy="147.97" r="5.91"/>
        <circle cx="384.89" cy="171.62" r="5.91"/>
        <circle cx="384.89" cy="195.26" r="5.91"/>
        <circle cx="384.89" cy="218.9" r="2.88"/>
        <circle cx="384.89" cy="242.54" r="5.91"/>
        <circle cx="384.89" cy="266.18" r="5.91"/>
        <circle cx="384.89" cy="289.83" r="5.91"/>
        <circle cx="408.53" cy="77.05" r="5.91"/>
        <circle cx="408.53" cy="100.69" r="5.91"/>
        <circle cx="408.53" cy="124.33" r="5.91"/>
        <circle cx="408.53" cy="147.97" r="2.88"/>
        <circle cx="408.53" cy="171.62" r="5.91"/>
        <circle cx="408.53" cy="195.26" r="5.91"/>
        <circle cx="408.53" cy="218.9" r="5.91"/>
        <circle cx="408.53" cy="266.18" r="5.91"/>
        <circle cx="408.53" cy="289.83" r="5.91"/>
        <circle cx="432.17" cy="77.05" r="5.91"/>
        <circle cx="432.17" cy="100.69" r="5.91"/>
        <circle cx="432.17" cy="124.33" r="5.91"/>
        <circle cx="432.17" cy="147.97" r="5.91"/>
        <circle cx="432.17" cy="171.62" r="5.91"/>
        <circle cx="432.17" cy="195.26" r="5.91"/>
        <circle cx="432.17" cy="218.9" r="2.88"/>
        <circle cx="432.17" cy="266.18" r="5.91"/>
        <circle cx="432.17" cy="289.83" r="5.91"/>
        <circle cx="455.81" cy="77.05" r="5.91"/>
        <circle cx="455.81" cy="195.26" r="5.91"/>
        <circle cx="455.81" cy="218.9" r="5.91"/>
        <circle cx="455.81" cy="266.18" r="5.91"/>
        <circle cx="455.81" cy="289.83" r="5.91"/>
        <circle cx="479.52" cy="313.47" r="5.91"/>
        <circle cx="479.52" cy="337.11" r="5.91"/>
        <circle cx="479.52" cy="384.39" r="5.91"/>
        <circle cx="479.52" cy="408.04" r="2.88"/>
        <circle cx="503.16" cy="408.04" r="5.91"/>
        <circle cx="503.16" cy="431.68" r="5.91"/>
        <circle cx="526.8" cy="313.47" r="2.88"/>
        <circle cx="313.96" cy="313.47" r="5.91"/>
        <circle cx="313.96" cy="337.11" r="5.91"/>
        <circle cx="313.96" cy="360.75" r="5.91"/>
        <circle cx="313.96" cy="384.39" r="5.91"/>
        <circle cx="337.6" cy="313.47" r="2.88"/>
        <circle cx="337.6" cy="337.11" r="5.91"/>
        <circle cx="337.6" cy="360.75" r="5.91"/>
        <circle cx="337.6" cy="384.39" r="5.91"/>
        <circle cx="361.24" cy="313.47" r="5.91"/>
        <circle cx="361.24" cy="337.11" r="5.91"/>
        <circle cx="361.24" cy="360.75" r="5.91"/>
        <circle cx="361.24" cy="384.39" r="5.91"/>
        <circle cx="361.24" cy="408.04" r="5.91"/>
        <circle cx="361.24" cy="431.68" r="5.91"/>
        <circle cx="384.89" cy="313.47" r="5.91"/>
        <circle cx="384.89" cy="337.11" r="5.91"/>
        <circle cx="384.89" cy="360.75" r="5.91"/>
        <circle cx="384.89" cy="384.39" r="2.88"/>
        <circle cx="384.89" cy="408.04" r="5.91"/>
        <circle cx="384.89" cy="431.68" r="5.91"/>
        <circle cx="408.53" cy="313.47" r="2.88"/>
        <circle cx="408.53" cy="337.11" r="5.91"/>
        <circle cx="408.53" cy="360.75" r="5.91"/>
        <circle cx="408.53" cy="384.39" r="5.91"/>
        <circle cx="408.53" cy="408.04" r="5.91"/>
        <circle cx="408.53" cy="431.68" r="5.91"/>
        <circle cx="432.17" cy="313.47" r="5.91"/>
        <circle cx="432.17" cy="337.11" r="5.91"/>
        <circle cx="432.17" cy="360.75" r="5.91"/>
        <circle cx="432.17" cy="384.39" r="2.88"/>
        <circle cx="432.17" cy="408.04" r="5.91"/>
        <circle cx="432.17" cy="431.68" r="5.91"/>
        <circle cx="455.81" cy="313.47" r="5.91"/>
        <circle cx="455.81" cy="337.11" r="5.91"/>
        <circle cx="455.81" cy="360.75" r="5.91"/>
        <circle cx="455.81" cy="384.39" r="5.91"/>
        <circle cx="455.81" cy="408.04" r="5.91"/>
        <circle cx="455.81" cy="431.68" r="5.91"/>
    </g>
</svg>
