<svg xmlns="http://www.w3.org/2000/svg" width="80" height="80" viewBox="0 0 80 80">
    <g fill="none" fill-rule="evenodd">
        <circle cx="40" cy="40" r="40" fill="#FFF"/>
        <g fill-rule="nonzero">
            <path fill="#3740C7" d="M48.455 49.908l4.268 4.268c7.79-7.834 7.772-20.493-.04-28.305 5.462 5.459 3.572 16.213-4.228 24.037z"/>
            <path fill="#2DB7E3" d="M52.684 25.87c-7.812-7.81-20.472-7.828-28.305-.039l4.268 4.268c7.824-7.793 18.576-9.69 24.037-4.228z"/>
            <path fill="#3740C7" d="M28.647 30.1l5.133 5.132c7.815-7.802 16.274-11.991 18.904-9.361-5.461-5.462-16.213-3.565-24.037 4.228z"/>
            <path fill="#2DB7E3" d="M33.78 35.232l9.543 9.543c7.802-7.815 11.99-16.274 9.36-18.904-2.629-2.63-11.086 1.559-18.903 9.361zM48.416 49.947c-7.828 7.829-18.613 9.738-24.088 4.268a20.043 20.043 0 0 0 28.347 0l.04-.041-4.268-4.268-.03.041z"/>
            <path fill="#3740C7" d="M48.416 49.947l.04-.041-5.133-5.133-.04.04c-7.828 7.828-16.31 12.043-18.944 9.4 5.468 5.472 16.249 3.563 24.077-4.266z"/>
            <path fill="#2DB7E3" d="M33.74 35.272l.04-.04-5.133-5.133-.042.04c-7.824 7.817-9.738 18.608-4.268 24.076-2.634-2.634 1.575-11.115 9.403-18.943z"/>
            <path fill="#FEFEFE" d="M43.283 44.815l.04-.04-9.543-9.543-.04.04c-7.828 7.828-12.044 16.309-9.4 18.943 2.642 2.635 11.113-1.572 18.943-9.4z"/>
        </g>
    </g>
</svg>
