<svg xmlns="http://www.w3.org/2000/svg" width="568" height="549" viewBox="0 0 568 549">
    <defs>
        <linearGradient id="a" x1="50%" x2="50%" y1="0%" y2="63.582%">
            <stop offset="0%" stop-color="#FFF" stop-opacity="0"/>
            <stop offset="100%" stop-color="#FFF"/>
        </linearGradient>
    </defs>
    <g fill="none" fill-rule="evenodd">
        <g fill-rule="nonzero" transform="translate(27)">
            <circle cx="101.11" cy="77.05" r="5.91" fill="#CFCFE2"/>
            <circle cx="101.11" cy="100.69" r="5.91" fill="#CFCFE2"/>
            <circle cx="101.11" cy="171.62" r="5.91" fill="#CFCFE2"/>
            <circle cx="101.11" cy="195.26" r="5.91" fill="#83D3F4"/>
            <circle cx="101.11" cy="218.9" r="5.91" fill="#CFCFE2"/>
            <circle cx="101.11" cy="242.54" r="2.88" fill="#CFCFE2"/>
            <circle cx="124.76" cy="77.05" r="5.91" fill="#CFCFE2"/>
            <circle cx="124.76" cy="100.69" r="5.91" fill="#CFCFE2"/>
            <circle cx="124.76" cy="124.33" r="5.91" fill="#CFCFE2"/>
            <circle cx="124.76" cy="171.62" r="5.91" fill="#CFCFE2"/>
            <circle cx="124.76" cy="195.26" r="5.91" fill="#CFCFE2"/>
            <circle cx="124.76" cy="218.9" r="5.91" fill="#CFCFE2"/>
            <circle cx="124.76" cy="242.54" r="5.91" fill="#CFCFE2"/>
            <circle cx="148.4" cy="77.05" r="5.91" fill="#CFCFE2"/>
            <circle cx="148.4" cy="100.69" r="5.91" fill="#CFCFE2"/>
            <circle cx="148.4" cy="124.33" r="5.91" fill="#CFCFE2"/>
            <circle cx="148.4" cy="147.97" r="2.88" fill="#CFCFE2"/>
            <circle cx="148.4" cy="171.62" r="5.91" fill="#CFCFE2"/>
            <circle cx="148.4" cy="195.26" r="5.91" fill="#CFCFE2"/>
            <circle cx="148.4" cy="218.9" r="5.91" fill="#CFCFE2"/>
            <circle cx="148.4" cy="242.54" r="5.91" fill="#CFCFE2"/>
            <circle cx="172.04" cy="77.05" r="5.91" fill="#CFCFE2"/>
            <circle cx="172.04" cy="100.69" r="5.91" fill="#CFCFE2"/>
            <circle cx="172.04" cy="124.33" r="5.91" fill="#CFCFE2"/>
            <circle cx="172.04" cy="147.97" r="5.91" fill="#CFCFE2"/>
            <circle cx="172.04" cy="171.62" r="5.91" fill="#CFCFE2"/>
            <circle cx="172.04" cy="195.26" r="5.91" fill="#CFCFE2"/>
            <circle cx="172.04" cy="218.9" r="5.91" fill="#CFCFE2"/>
            <circle cx="172.04" cy="242.54" r="5.91" fill="#CFCFE2"/>
            <circle cx="195.68" cy="100.69" r="5.91" fill="#CFCFE2"/>
            <circle cx="195.68" cy="124.33" r="5.91" fill="#CFCFE2"/>
            <circle cx="195.68" cy="147.97" r="5.91" fill="#CFCFE2"/>
            <circle cx="195.68" cy="171.62" r="5.91" fill="#CFCFE2"/>
            <circle cx="195.68" cy="195.26" r="5.91" fill="#CFCFE2"/>
            <circle cx="195.68" cy="218.9" r="2.88" fill="#CFCFE2"/>
            <circle cx="195.68" cy="242.54" r="5.91" fill="#CFCFE2"/>
            <circle cx="195.68" cy="266.18" r="5.91" fill="#CFCFE2"/>
            <circle cx="195.68" cy="289.83" r="5.91" fill="#CFCFE2"/>
            <circle cx="219.32" cy="100.69" r="5.91" fill="#3A38C5"/>
            <circle cx="219.32" cy="124.33" r="5.91" fill="#CFCFE2"/>
            <circle cx="219.32" cy="147.97" r="2.88" fill="#CFCFE2"/>
            <circle cx="219.32" cy="171.62" r="5.91" fill="#CFCFE2"/>
            <circle cx="219.32" cy="195.26" r="5.91" fill="#CFCFE2"/>
            <circle cx="219.32" cy="218.9" r="5.91" fill="#CFCFE2"/>
            <circle cx="219.32" cy="242.54" r="5.91" fill="#CFCFE2"/>
            <circle cx="219.32" cy="266.18" r="5.91" fill="#CFCFE2"/>
            <circle cx="219.32" cy="289.83" r="5.91" fill="#CFCFE2"/>
            <circle cx="242.97" cy="77.05" r="5.91" fill="#CFCFE2"/>
            <circle cx="242.97" cy="100.69" r="5.91" fill="#CFCFE2"/>
            <circle cx="242.97" cy="124.33" r="5.91" fill="#CFCFE2"/>
            <circle cx="242.97" cy="147.97" r="5.91" fill="#CFCFE2"/>
            <circle cx="242.97" cy="171.62" r="5.91" fill="#CFCFE2"/>
            <circle cx="242.97" cy="195.26" r="5.91" fill="#CFCFE2"/>
            <circle cx="242.97" cy="218.9" r="2.88" fill="#CFCFE2"/>
            <circle cx="242.97" cy="242.54" r="5.91" fill="#CFCFE2"/>
            <circle cx="242.97" cy="266.18" r="5.91" fill="#CFCFE2"/>
            <circle cx="242.97" cy="289.83" r="5.91" fill="#CFCFE2"/>
            <circle cx="266.61" cy="77.05" r="5.91" fill="#CFCFE2"/>
            <circle cx="266.61" cy="100.69" r="2.88" fill="#CFCFE2"/>
            <circle cx="266.61" cy="124.33" r="5.91" fill="#CFCFE2"/>
            <circle cx="266.61" cy="266.18" r="5.91" fill="#CFCFE2"/>
            <circle cx="266.61" cy="289.83" r="5.91" fill="#CFCFE2"/>
            <circle cx="6.48" cy="195.26" r="5.91" fill="#CFCFE2"/>
            <circle cx="6.48" cy="218.9" r="2.88" fill="#CFCFE2"/>
            <circle cx="6.48" cy="242.54" r="5.91" fill="#CFCFE2"/>
            <circle cx="30.12" cy="100.69" r="5.91" fill="#CFCFE2"/>
            <circle cx="30.12" cy="171.62" r="5.91" fill="#CFCFE2"/>
            <circle cx="30.12" cy="195.26" r="5.91" fill="#CFCFE2"/>
            <circle cx="30.12" cy="218.9" r="5.91" fill="#CFCFE2"/>
            <circle cx="30.12" cy="242.54" r="5.91" fill="#CFCFE2"/>
            <circle cx="30.12" cy="266.18" r="5.91" fill="#CFCFE2"/>
            <circle cx="53.76" cy="77.05" r="5.91" fill="#CFCFE2"/>
            <circle cx="53.76" cy="100.69" r="5.91" fill="#CFCFE2"/>
            <circle cx="53.76" cy="171.62" r="5.91" fill="#CFCFE2"/>
            <circle cx="53.76" cy="195.26" r="5.91" fill="#CFCFE2"/>
            <circle cx="53.76" cy="218.9" r="2.88" fill="#CFCFE2"/>
            <circle cx="53.76" cy="242.54" r="5.91" fill="#CFCFE2"/>
            <circle cx="53.76" cy="266.18" r="5.91" fill="#CFCFE2"/>
            <circle cx="77.41" cy="77.05" r="5.91" fill="#CFCFE2"/>
            <circle cx="77.41" cy="100.69" r="2.88" fill="#CFCFE2"/>
            <circle cx="77.41" cy="171.62" r="5.91" fill="#CFCFE2"/>
            <circle cx="77.41" cy="195.26" r="5.91" fill="#CFCFE2"/>
            <circle cx="77.41" cy="218.9" r="5.91" fill="#CFCFE2"/>
            <circle cx="77.41" cy="242.54" r="5.91" fill="#CFCFE2"/>
            <circle cx="77.41" cy="266.18" r="5.91" fill="#CFCFE2"/>
            <circle cx="101.11" cy="6.12" r="2.88" fill="#CFCFE2"/>
            <circle cx="101.11" cy="29.76" r="5.91" fill="#CFCFE2"/>
            <circle cx="101.11" cy="53.41" r="5.91" fill="#CFCFE2"/>
            <circle cx="124.76" cy="53.41" r="5.91" fill="#CFCFE2"/>
            <circle cx="148.4" cy="53.41" r="5.91" fill="#CFCFE2"/>
            <circle cx="172.04" cy="53.41" r="5.91" fill="#CFCFE2"/>
            <circle cx="195.68" cy="6.12" r="5.91" fill="#CFCFE2"/>
            <circle cx="195.68" cy="29.76" r="5.91" fill="#CFCFE2"/>
            <circle cx="219.32" cy="29.76" r="5.91" fill="#CFCFE2"/>
            <circle cx="242.97" cy="29.76" r="5.91" fill="#CFCFE2"/>
            <circle cx="242.97" cy="53.41" r="5.91" fill="#CFCFE2"/>
            <circle cx="266.61" cy="29.76" r="5.91" fill="#CFCFE2"/>
            <circle cx="266.61" cy="53.41" r="5.91" fill="#83D3F4"/>
            <circle cx="77.41" cy="29.76" r="5.91" fill="#CFCFE2"/>
            <circle cx="77.41" cy="53.41" r="5.91" fill="#CFCFE2"/>
            <circle cx="479.52" cy="100.69" r="5.91" fill="#CFCFE2"/>
            <circle cx="479.52" cy="124.33" r="5.91" fill="#CFCFE2"/>
            <circle cx="479.52" cy="218.9" r="5.91" fill="#CFCFE2"/>
            <circle cx="479.52" cy="266.18" r="5.91" fill="#3A38C5"/>
            <circle cx="479.52" cy="289.83" r="5.91" fill="#CFCFE2"/>
            <circle cx="503.16" cy="100.69" r="5.91" fill="#CFCFE2"/>
            <circle cx="503.16" cy="124.33" r="5.91" fill="#CFCFE2"/>
            <circle cx="503.16" cy="218.9" r="5.91" fill="#CFCFE2"/>
            <circle cx="503.16" cy="266.18" r="5.91" fill="#CFCFE2"/>
            <circle cx="503.16" cy="289.83" r="5.91" fill="#CFCFE2"/>
            <circle cx="526.8" cy="124.33" r="5.91" fill="#CFCFE2"/>
            <circle cx="526.8" cy="147.97" r="2.88" fill="#CFCFE2"/>
            <circle cx="526.8" cy="171.62" r="5.91" fill="#CFCFE2"/>
            <circle cx="526.8" cy="195.26" r="5.91" fill="#CFCFE2"/>
            <circle cx="526.8" cy="266.18" r="5.91" fill="#CFCFE2"/>
            <circle cx="526.8" cy="289.83" r="5.91" fill="#CFCFE2"/>
            <circle cx="290.32" cy="77.05" r="5.91" fill="#CFCFE2"/>
            <circle cx="290.32" cy="100.69" r="5.91" fill="#CFCFE2"/>
            <circle cx="290.32" cy="124.33" r="5.91" fill="#CFCFE2"/>
            <circle cx="290.32" cy="147.97" r="5.91" fill="#CFCFE2"/>
            <circle cx="290.32" cy="171.62" r="5.91" fill="#CFCFE2"/>
            <circle cx="290.32" cy="195.26" r="5.91" fill="#CFCFE2"/>
            <circle cx="290.32" cy="218.9" r="5.91" fill="#CFCFE2"/>
            <circle cx="290.32" cy="242.54" r="2.88" fill="#CFCFE2"/>
            <circle cx="290.32" cy="266.18" r="5.91" fill="#CFCFE2"/>
            <circle cx="290.32" cy="289.83" r="5.91" fill="#CFCFE2"/>
            <circle cx="313.96" cy="77.05" r="5.91" fill="#CFCFE2"/>
            <circle cx="313.96" cy="100.69" r="5.91" fill="#CFCFE2"/>
            <circle cx="313.96" cy="124.33" r="5.91" fill="#CFCFE2"/>
            <circle cx="313.96" cy="147.97" r="5.91" fill="#CFCFE2"/>
            <circle cx="313.96" cy="171.62" r="5.91" fill="#CFCFE2"/>
            <circle cx="313.96" cy="195.26" r="5.91" fill="#CFCFE2"/>
            <circle cx="313.96" cy="218.9" r="5.91" fill="#CFCFE2"/>
            <circle cx="313.96" cy="242.54" r="5.91" fill="#CFCFE2"/>
            <circle cx="313.96" cy="266.18" r="5.91" fill="#CFCFE2"/>
            <circle cx="313.96" cy="289.83" r="5.91" fill="#CFCFE2"/>
            <circle cx="337.6" cy="77.05" r="5.91" fill="#3A38C5"/>
            <circle cx="337.6" cy="100.69" r="5.91" fill="#3A38C5"/>
            <circle cx="337.6" cy="124.33" r="5.91" fill="#CFCFE2"/>
            <circle cx="337.6" cy="147.97" r="2.88" fill="#CFCFE2"/>
            <circle cx="337.6" cy="171.62" r="5.91" fill="#CFCFE2"/>
            <circle cx="337.6" cy="195.26" r="5.91" fill="#CFCFE2"/>
            <circle cx="337.6" cy="218.9" r="5.91" fill="#CFCFE2"/>
            <circle cx="337.6" cy="242.54" r="5.91" fill="#CFCFE2"/>
            <circle cx="337.6" cy="266.18" r="5.91" fill="#3A38C5"/>
            <circle cx="337.6" cy="289.83" r="5.91" fill="#CFCFE2"/>
            <circle cx="361.24" cy="77.05" r="5.91" fill="#CFCFE2"/>
            <circle cx="361.24" cy="100.69" r="5.91" fill="#CFCFE2"/>
            <circle cx="361.24" cy="124.33" r="5.91" fill="#CFCFE2"/>
            <circle cx="361.24" cy="147.97" r="5.91" fill="#CFCFE2"/>
            <circle cx="361.24" cy="171.62" r="5.91" fill="#CFCFE2"/>
            <circle cx="361.24" cy="195.26" r="5.91" fill="#CFCFE2"/>
            <circle cx="361.24" cy="218.9" r="5.91" fill="#CFCFE2"/>
            <circle cx="361.24" cy="242.54" r="5.91" fill="#CFCFE2"/>
            <circle cx="361.24" cy="266.18" r="5.91" fill="#CFCFE2"/>
            <circle cx="361.24" cy="289.83" r="5.91" fill="#CFCFE2"/>
            <circle cx="384.89" cy="77.05" r="5.91" fill="#CFCFE2"/>
            <circle cx="384.89" cy="100.69" r="5.91" fill="#CFCFE2"/>
            <circle cx="384.89" cy="124.33" r="5.91" fill="#CFCFE2"/>
            <circle cx="384.89" cy="147.97" r="5.91" fill="#CFCFE2"/>
            <circle cx="384.89" cy="171.62" r="5.91" fill="#CFCFE2"/>
            <circle cx="384.89" cy="195.26" r="5.91" fill="#CFCFE2"/>
            <circle cx="384.89" cy="218.9" r="2.88" fill="#CFCFE2"/>
            <circle cx="384.89" cy="242.54" r="5.91" fill="#CFCFE2"/>
            <circle cx="384.89" cy="266.18" r="5.91" fill="#CFCFE2"/>
            <circle cx="384.89" cy="289.83" r="5.91" fill="#CFCFE2"/>
            <circle cx="408.53" cy="77.05" r="5.91" fill="#CFCFE2"/>
            <circle cx="408.53" cy="100.69" r="5.91" fill="#CFCFE2"/>
            <circle cx="408.53" cy="124.33" r="5.91" fill="#CFCFE2"/>
            <circle cx="408.53" cy="147.97" r="2.88" fill="#CFCFE2"/>
            <circle cx="408.53" cy="171.62" r="5.91" fill="#CFCFE2"/>
            <circle cx="408.53" cy="195.26" r="5.91" fill="#CFCFE2"/>
            <circle cx="408.53" cy="218.9" r="5.91" fill="#CFCFE2"/>
            <circle cx="408.53" cy="266.18" r="5.91" fill="#CFCFE2"/>
            <circle cx="408.53" cy="289.83" r="5.91" fill="#CFCFE2"/>
            <circle cx="432.17" cy="77.05" r="5.91" fill="#CFCFE2"/>
            <circle cx="432.17" cy="100.69" r="5.91" fill="#CFCFE2"/>
            <circle cx="432.17" cy="124.33" r="5.91" fill="#CFCFE2"/>
            <circle cx="432.17" cy="147.97" r="5.91" fill="#CFCFE2"/>
            <circle cx="432.17" cy="171.62" r="5.91" fill="#CFCFE2"/>
            <circle cx="432.17" cy="195.26" r="5.91" fill="#CFCFE2"/>
            <circle cx="432.17" cy="218.9" r="2.88" fill="#CFCFE2"/>
            <circle cx="432.17" cy="266.18" r="5.91" fill="#CFCFE2"/>
            <circle cx="432.17" cy="289.83" r="5.91" fill="#CFCFE2"/>
            <circle cx="455.81" cy="77.05" r="5.91" fill="#CFCFE2"/>
            <circle cx="455.81" cy="195.26" r="5.91" fill="#CFCFE2"/>
            <circle cx="455.81" cy="218.9" r="5.91" fill="#CFCFE2"/>
            <circle cx="455.81" cy="266.18" r="5.91" fill="#CFCFE2"/>
            <circle cx="455.81" cy="289.83" r="5.91" fill="#3A38C5"/>
            <circle cx="101.11" cy="313.47" r="5.91" fill="#CFCFE2"/>
            <circle cx="101.11" cy="337.11" r="5.91" fill="#CFCFE2"/>
            <circle cx="124.76" cy="313.47" r="5.91" fill="#CFCFE2"/>
            <circle cx="124.76" cy="337.11" r="5.91" fill="#CFCFE2"/>
            <circle cx="124.76" cy="360.75" r="5.91" fill="#3A38C5"/>
            <circle cx="124.76" cy="384.39" r="5.91" fill="#CFCFE2"/>
            <circle cx="148.4" cy="313.47" r="2.88" fill="#CFCFE2"/>
            <circle cx="148.4" cy="337.11" r="5.91" fill="#CFCFE2"/>
            <circle cx="148.4" cy="360.75" r="5.91" fill="#CFCFE2"/>
            <circle cx="148.4" cy="384.39" r="5.91" fill="#3A38C5"/>
            <circle cx="172.04" cy="313.47" r="5.91" fill="#CFCFE2"/>
            <circle cx="172.04" cy="337.11" r="5.91" fill="#CFCFE2"/>
            <circle cx="172.04" cy="360.75" r="5.91" fill="#CFCFE2"/>
            <circle cx="172.04" cy="384.39" r="5.91" fill="#CFCFE2"/>
            <circle cx="195.68" cy="313.47" r="5.91" fill="#CFCFE2"/>
            <circle cx="195.68" cy="337.11" r="5.91" fill="#CFCFE2"/>
            <circle cx="195.68" cy="360.75" r="5.91" fill="#CFCFE2"/>
            <circle cx="195.68" cy="384.39" r="2.88" fill="#CFCFE2"/>
            <circle cx="219.32" cy="313.47" r="2.88" fill="#CFCFE2"/>
            <circle cx="219.32" cy="337.11" r="5.91" fill="#CFCFE2"/>
            <circle cx="219.32" cy="360.75" r="5.91" fill="#CFCFE2"/>
            <circle cx="219.32" cy="384.39" r="5.91" fill="#CFCFE2"/>
            <circle cx="242.97" cy="313.47" r="5.91" fill="#CFCFE2"/>
            <circle cx="242.97" cy="337.11" r="5.91" fill="#CFCFE2"/>
            <circle cx="242.97" cy="360.75" r="5.91" fill="#CFCFE2"/>
            <circle cx="242.97" cy="384.39" r="2.88" fill="#CFCFE2"/>
            <circle cx="266.61" cy="313.47" r="5.91" fill="#CFCFE2"/>
            <circle cx="266.61" cy="337.11" r="5.91" fill="#CFCFE2"/>
            <circle cx="266.61" cy="360.75" r="5.91" fill="#CFCFE2"/>
            <circle cx="266.61" cy="384.39" r="5.91" fill="#CFCFE2"/>
            <circle cx="6.48" cy="313.47" r="5.91" fill="#CFCFE2"/>
            <circle cx="6.48" cy="360.75" r="5.91" fill="#3A38C5"/>
            <circle cx="30.12" cy="313.47" r="2.88" fill="#CFCFE2"/>
            <circle cx="30.12" cy="337.11" r="5.91" fill="#CFCFE2"/>
            <circle cx="30.12" cy="360.75" r="5.91" fill="#3A38C5"/>
            <circle cx="30.12" cy="384.39" r="5.91" fill="#CFCFE2"/>
            <circle cx="53.76" cy="337.11" r="5.91" fill="#CFCFE2"/>
            <circle cx="53.76" cy="360.75" r="5.91" fill="#CFCFE2"/>
            <circle cx="53.76" cy="384.39" r="2.88" fill="#CFCFE2"/>
            <circle cx="77.41" cy="313.47" r="5.91" fill="#CFCFE2"/>
            <circle cx="77.41" cy="337.11" r="5.91" fill="#CFCFE2"/>
            <circle cx="479.52" cy="313.47" r="5.91" fill="#CFCFE2"/>
            <circle cx="479.52" cy="337.11" r="5.91" fill="#CFCFE2"/>
            <circle cx="479.52" cy="384.39" r="5.91" fill="#CFCFE2"/>
            <circle cx="526.8" cy="313.47" r="2.88" fill="#CFCFE2"/>
            <circle cx="290.32" cy="313.47" r="5.91" fill="#CFCFE2"/>
            <circle cx="290.32" cy="337.11" r="5.91" fill="#CFCFE2"/>
            <circle cx="290.32" cy="360.75" r="5.91" fill="#CFCFE2"/>
            <circle cx="290.32" cy="384.39" r="5.91" fill="#CFCFE2"/>
            <circle cx="313.96" cy="313.47" r="5.91" fill="#CFCFE2"/>
            <circle cx="313.96" cy="337.11" r="5.91" fill="#CFCFE2"/>
            <circle cx="313.96" cy="360.75" r="5.91" fill="#CFCFE2"/>
            <circle cx="313.96" cy="384.39" r="5.91" fill="#CFCFE2"/>
            <circle cx="337.6" cy="313.47" r="2.88" fill="#CFCFE2"/>
            <circle cx="337.6" cy="337.11" r="5.91" fill="#CFCFE2"/>
            <circle cx="337.6" cy="360.75" r="5.91" fill="#CFCFE2"/>
            <circle cx="337.6" cy="384.39" r="5.91" fill="#CFCFE2"/>
            <circle cx="361.24" cy="313.47" r="5.91" fill="#CFCFE2"/>
            <circle cx="361.24" cy="337.11" r="5.91" fill="#CFCFE2"/>
            <circle cx="361.24" cy="360.75" r="5.91" fill="#CFCFE2"/>
            <circle cx="361.24" cy="384.39" r="5.91" fill="#CFCFE2"/>
            <circle cx="384.89" cy="313.47" r="5.91" fill="#CFCFE2"/>
            <circle cx="384.89" cy="337.11" r="5.91" fill="#CFCFE2"/>
            <circle cx="384.89" cy="360.75" r="5.91" fill="#CFCFE2"/>
            <circle cx="384.89" cy="384.39" r="2.88" fill="#CFCFE2"/>
            <circle cx="408.53" cy="313.47" r="2.88" fill="#CFCFE2"/>
            <circle cx="408.53" cy="337.11" r="5.91" fill="#CFCFE2"/>
            <circle cx="408.53" cy="360.75" r="5.91" fill="#CFCFE2"/>
            <circle cx="408.53" cy="384.39" r="5.91" fill="#CFCFE2"/>
            <circle cx="432.17" cy="313.47" r="5.91" fill="#83D3F4"/>
            <circle cx="432.17" cy="337.11" r="5.91" fill="#CFCFE2"/>
            <circle cx="432.17" cy="360.75" r="5.91" fill="#CFCFE2"/>
            <circle cx="432.17" cy="384.39" r="2.88" fill="#CFCFE2"/>
            <circle cx="455.81" cy="313.47" r="5.91" fill="#CFCFE2"/>
            <circle cx="455.81" cy="337.11" r="5.91" fill="#CFCFE2"/>
            <circle cx="455.81" cy="360.75" r="5.91" fill="#CFCFE2"/>
            <circle cx="455.81" cy="384.39" r="5.91" fill="#CFCFE2"/>
            <circle cx="290.32" cy="53.41" r="5.91" fill="#CFCFE2"/>
            <circle cx="337.6" cy="29.76" r="5.91" fill="#CFCFE2"/>
            <circle cx="337.6" cy="53.41" r="5.91" fill="#CFCFE2"/>
            <circle cx="361.24" cy="6.12" r="5.91" fill="#CFCFE2"/>
            <circle cx="361.24" cy="29.76" r="5.91" fill="#CFCFE2"/>
            <circle cx="361.24" cy="53.41" r="5.91" fill="#CFCFE2"/>
            <circle cx="384.89" cy="29.76" r="5.91" fill="#CFCFE2"/>
            <circle cx="408.53" cy="29.76" r="5.91" fill="#CFCFE2"/>
        </g>
        <path fill="url(#a)" d="M0 59h568v490H0z"/>
    </g>
</svg>
