<?xml version="1.0" encoding="UTF-8"?>
<svg width="200px" height="64px" viewBox="0 0 200 64" version="1.1" xmlns="http://www.w3.org/2000/svg" xmlns:xlink="http://www.w3.org/1999/xlink">
    <!-- Generator: Sketch 53.2 (72643) - https://sketchapp.com -->
    <title>Group 27</title>
    <desc>Created with Sketch.</desc>
    <g id="Page-1" stroke="none" stroke-width="1" fill="none" fill-rule="evenodd">
        <g id="Marlin-index" transform="translate(-136.000000, -4427.000000)">
            <g id="Group-27" transform="translate(136.000000, 4427.000000)">
                <polygon id="Rectangle-Copy-36" fill="#FAFAFF" points="0 0 200 0 200 64 0 64"></polygon>
                <g id="Group-38" transform="translate(38.768382, 17.496905)" fill="#8C8EA0" fill-rule="nonzero">
                    <polygon id="Rectangle" transform="translate(4.436369, 15.257207) rotate(-45.000000) translate(-4.436369, -15.257207) " points="2.02076905 12.841607 6.8727381 12.8208379 6.85196905 17.672807 2 17.693576"></polygon>
                    <polygon id="Path" points="16.1452176 6.89154762 22.0012176 12.7978968 25.4164176 9.3509127 16.1452176 -4.54747351e-13 6.87401757 9.3509127 10.2892176 12.7978968"></polygon>
                    <polygon id="Rectangle" transform="translate(27.857141, 15.258042) rotate(-45.000000) translate(-27.857141, -15.258042) " points="25.4415412 12.8424419 30.2935103 12.8216728 30.2727412 17.6736419 25.4207722 17.6944109"></polygon>
                    <polygon id="Path" points="16.1452176 23.6229762 10.2892176 17.7190476 6.87401757 21.1636111 16.1452176 30.5145238 25.4164176 21.1636111 22.0012176 17.7190476"></polygon>
                    <polygon id="Rectangle" transform="translate(16.147604, 15.257979) rotate(-45.000000) translate(-16.147604, -15.257979) " points="13.7320037 12.8423789 18.5839727 12.8216099 18.5632037 17.6735789 13.7112346 17.694348"></polygon>
                    <path d="M43.6804176,15.2572619 L38.1076176,15.2572619 L38.1076176,3.44214286 L43.5460176,3.44214286 C45.9460176,3.44214286 47.4124176,4.65246032 47.4124176,6.49698413 L47.4124176,6.53087302 C47.4124176,7.86464286 46.7092176,8.60535714 45.8716176,9.07980159 C47.2276176,9.60265873 48.0652176,10.396627 48.0652176,11.9845635 L48.0652176,12.0184524 C48.0652176,14.1776587 46.3228176,15.2572619 43.6804176,15.2572619 Z M44.8516176,6.93511905 C44.8516176,6.15809524 44.2492176,5.72480159 43.1716176,5.72480159 L40.6276176,5.72480159 L40.6276176,8.22531746 L42.9916176,8.22531746 C44.1292176,8.22531746 44.8492176,7.85496032 44.8492176,6.97626984 L44.8516176,6.93511905 Z M45.5044176,11.662619 C45.5044176,10.8686508 44.9188176,10.3796825 43.5964176,10.3796825 L40.6180176,10.3796825 L40.6180176,12.9794444 L43.6804176,12.9794444 C44.8180176,12.9794444 45.5044176,12.5727778 45.5044176,11.6965079 L45.5044176,11.662619 Z" id="Shape"></path>
                    <polygon id="Path" points="50.8924176 15.2572619 50.8924176 3.44214286 53.4700176 3.44214286 53.4700176 15.2572619"></polygon>
                    <polygon id="Path" points="65.1316176 15.2572619 59.4580176 7.74119048 59.4580176 15.2451587 56.9116176 15.2451587 56.9116176 3.44214286 59.2876176 3.44214286 64.7764176 10.7161508 64.7764176 3.44214286 67.3204176 3.44214286 67.3204176 15.2572619"></polygon>
                    <path d="M78.9052176,15.2572619 L77.8348176,12.5945635 L72.8812176,12.5945635 L71.8084176,15.2572619 L69.1828176,15.2572619 L74.2036176,3.35742063 L76.5916176,3.35742063 L81.6124176,15.2572619 L78.9052176,15.2572619 Z M75.3580176,6.48003968 L73.8004176,10.3119048 L76.9204176,10.3119048 L75.3580176,6.48003968 Z" id="Shape"></path>
                    <polygon id="Path" points="91.6924176 15.2572619 86.0188176 7.74119048 86.0188176 15.2451587 83.4748176 15.2451587 83.4748176 3.44214286 85.8508176 3.44214286 91.3396176 10.7161508 91.3396176 3.44214286 93.8836176 3.44214286 93.8836176 15.2572619"></polygon>
                    <path d="M102.386818,15.4605952 C100.783763,15.484518 99.239777,14.8509434 98.1086135,13.7050344 C96.97745,12.5591254 96.356061,10.9990977 96.3868176,9.38238095 L96.3868176,9.34849206 C96.3868176,5.99107143 98.8972176,3.23880952 102.494818,3.23880952 C104.702818,3.23880952 106.025218,3.98194444 107.114818,5.06154762 L105.473218,6.96900794 C104.570818,6.14115079 103.649218,5.6352381 102.478018,5.6352381 C100.502818,5.6352381 99.0796176,7.29095238 99.0796176,9.31460317 L99.0796176,9.34849206 C99.0796176,11.3745635 100.469218,13.061746 102.478018,13.061746 C103.817218,13.061746 104.638018,12.5219444 105.557218,11.6795635 L107.196418,13.3498016 C105.984418,14.6496825 104.647618,15.4605952 102.386818,15.4605952 Z" id="Path"></path>
                    <polygon id="Path" points="109.267618 15.2572619 109.267618 3.44214286 118.111618 3.44214286 118.111618 5.75384921 111.826018 5.75384921 111.826018 8.15027778 117.346018 8.15027778 117.346018 10.4644048 111.826018 10.4644048 111.826018 12.9455556 118.186018 12.9455556 118.186018 15.2572619"></polygon>
                    <polygon id="Path" points="86.9692176 18.6994048 88.4260176 18.6994048 88.4260176 25.719246 92.7844176 25.719246 92.7844176 27.0554365 86.9692176 27.0554365"></polygon>
                    <path d="M102.691618,27.0626984 L101.150818,27.0626984 L100.308418,25.0438889 L96.3868176,25.0438889 L95.5348176,27.0626984 L94.0420176,27.0626984 L97.6900176,18.6388889 L99.0412176,18.6388889 L102.691618,27.0626984 Z M98.3428176,20.3962698 L96.9220176,23.7415873 L99.7756176,23.7415873 L98.3428176,20.3962698 Z" id="Shape"></path>
                    <path d="M110.688418,20.839246 C110.688418,21.8655952 110.119618,22.390873 109.502818,22.7152381 C110.474818,23.0492857 111.149218,23.610873 111.149218,24.758254 C111.149218,26.2638889 109.930018,27.0626984 108.082018,27.0626984 L104.242018,27.0626984 L104.242018,18.6994048 L107.962018,18.6994048 C109.634818,18.6994048 110.688418,19.5248413 110.688418,20.839246 Z M109.231618,21.0813095 C109.231618,20.4011111 108.710818,20.0065476 107.774818,20.0065476 L105.677218,20.0065476 L105.677218,22.2286905 L107.666818,22.2286905 C108.602818,22.2238492 109.231618,21.8534921 109.231618,21.0764683 L109.231618,21.0813095 Z M109.692418,24.6081746 C109.692418,23.8819841 109.135618,23.4728968 107.986018,23.4728968 L105.677218,23.4728968 L105.677218,25.7652381 L108.094018,25.7652381 C109.090018,25.7603968 109.692418,25.368254 109.692418,24.6033333 L109.692418,24.6081746 Z" id="Shape"></path>
                    <path d="M116.210818,22.211746 C117.962818,22.642619 118.874818,23.2768254 118.874818,24.6735317 C118.874818,26.2517857 117.655618,27.1837302 115.913218,27.1837302 C114.635033,27.1893022 113.401151,26.7117151 112.454818,25.845119 L113.330818,24.7945635 C114.125218,25.4868651 114.919618,25.8814286 115.949218,25.8814286 C116.849218,25.8814286 117.418018,25.4626587 117.418018,24.8163492 C117.418018,24.2087698 117.086818,23.8844048 115.546018,23.5261508 C113.782018,23.0976984 112.786018,22.5578968 112.786018,21.018373 C112.786018,19.5659921 113.971618,18.5807937 115.618018,18.5807937 C116.713161,18.55887 117.7802,18.9313391 118.627618,19.6313492 L117.845218,20.7424206 C117.20824,20.2152825 116.417422,19.9134122 115.594018,19.8830952 C114.742018,19.8830952 114.242818,20.3236508 114.242818,20.8852381 C114.242818,21.5388095 114.622018,21.8292857 116.210818,22.211746 Z" id="Path"></path>
                    <rect id="Rectangle" x="38.1076176" y="22.1972222" width="45.4128" height="1.39186508"></rect>
                </g>
            </g>
        </g>
    </g>
</svg>