<svg xmlns="http://www.w3.org/2000/svg" width="200" height="64" viewBox="0 0 200 64">
    <g fill="none" fill-rule="evenodd" opacity=".8">
        <path fill="#FAFAFF" d="M0 0h200v64H0z"/>
        <g fill="#737485" fill-rule="nonzero">
            <path d="M30 19.217h10.256c1.953 0 3.418.487 4.504 1.3 1.193.975 1.845 2.383 1.845 4.116 0 2.005-.814 3.25-2.442 4.009v.108c2.17.704 3.418 2.654 3.418 4.983 0 2.221-.868 3.955-2.279 5.038-1.193.866-2.713 1.246-4.775 1.246H30v-20.8zm9.225 8.125c1.085 0 1.899-.596 1.899-1.842 0-1.192-.814-1.787-1.953-1.787h-3.528v3.574h3.582v.055zm.488 8.07c1.248 0 2.17-.758 2.17-2.112 0-1.463-.976-2.113-2.17-2.113h-4.015v4.28h4.015v-.055zM48.504 19.217h5.372V40.07h-5.372zM54.961 32.65c0-4.713 3.039-7.854 7.76-7.854 4.72 0 7.705 3.196 7.705 7.854 0 4.713-2.984 7.854-7.705 7.854s-7.76-3.141-7.76-7.854zm10.093 0c0-2.6-.814-4.225-2.442-4.225-1.628 0-2.387 1.625-2.387 4.225 0 2.6.76 4.28 2.387 4.28 1.628-.055 2.442-1.68 2.442-4.28zM71.023 32.65c0-4.713 3.039-7.854 7.76-7.854 4.72 0 7.651 3.141 7.651 7.854s-2.984 7.854-7.705 7.854c-4.667 0-7.706-3.141-7.706-7.854zm10.093 0c0-2.6-.814-4.225-2.442-4.225-1.627 0-2.387 1.625-2.387 4.225 0 2.6.76 4.28 2.387 4.28 1.628-.055 2.442-1.68 2.442-4.28zM87.52 25.175h4.992v2.22h.108c.977-1.732 2.333-2.653 4.504-2.653 1.9 0 3.31.92 4.016 2.545h.108c1.194-1.95 2.768-2.545 4.612-2.545 3.473 0 4.938 2.545 4.938 5.958v9.317h-5.209V31.62c0-1.517-.488-2.492-1.79-2.492-1.303 0-1.954 1.192-1.954 2.817v8.07h-5.21v-8.395c0-1.517-.488-2.492-1.79-2.492s-1.954 1.192-1.954 2.817v8.07H87.52V25.176zM117.364 38.067h-.054v1.95h-4.992v-20.8h5.21v7.475h.108c.976-1.3 2.333-2.004 4.232-2.004 3.744 0 5.915 3.358 5.915 7.854 0 5.037-2.333 7.962-6.24 7.962-1.628 0-3.31-.758-4.179-2.437zm5.047-5.58c0-2.383-.868-3.954-2.442-3.954-1.628 0-2.605 1.571-2.605 3.954 0 2.384 1.031 3.955 2.605 3.955s2.442-1.517 2.442-3.954zM128.38 32.596c0-4.658 3.093-7.854 7.542-7.854 2.225 0 3.907.704 5.21 1.95 1.736 1.679 2.496 4.279 2.442 7.312h-9.985c.217 1.842 1.085 2.817 2.66 2.817.922 0 1.735-.434 2.061-1.409h5.047c-.869 3.413-3.528 5.092-7.272 5.092-4.612-.054-7.705-3.196-7.705-7.908zm5.21-1.571h4.774c-.108-1.787-1.085-2.708-2.333-2.708-1.465-.054-2.28.975-2.442 2.708zM149.488 27.72h.109c1.085-2.058 2.496-2.87 4.287-2.87.434 0 .705.054.868.162v4.55h-.109c-3.093-.541-4.883.921-4.883 4.28v6.229h-5.264V25.175h4.992v2.546zM155.295 40.07h5.046c.217.65.868 1.247 2.116 1.247 1.683 0 2.28-1.03 2.28-2.6v-1.084h-.11c-.813.975-1.953 1.68-3.58 1.68-3.202 0-6.024-2.384-6.024-7.042 0-4.28 2.28-7.584 5.752-7.584 2.008 0 3.202.813 4.016 2.059h.108V25.12h4.992v12.892c0 2.383-.813 4.225-2.062 5.308-1.302 1.137-3.147 1.625-5.263 1.625-4.016.054-6.783-1.571-7.271-4.875zm9.658-8.016c0-1.841-.868-3.358-2.387-3.358-1.465 0-2.388 1.3-2.388 3.358 0 2.004.923 3.413 2.388 3.413 1.465 0 2.387-1.463 2.387-3.413z"/>
        </g>
    </g>
</svg>
