<svg xmlns="http://www.w3.org/2000/svg" width="200" height="64" viewBox="0 0 200 64">
    <g fill="none" fill-rule="evenodd" opacity=".8">
        <path fill="#FAFAFF" d="M0 0h200v64H0z"/>
        <g fill="#737485" fill-rule="nonzero">
            <path d="M53.857 19.012c.163.058.326.116.489.15 1.338.373 2.397 1.584 2.514 2.899.15 1.594-.57 2.944-1.909 3.607-1.28.629-2.91.454-3.887-.593-1.478-1.595-3.77-1.548-5.237-.012-1.303 1.373-3.445 1.269-4.864-.105-.931-.907-2.002-1.303-3.282-.989-2.083.512-3.899 3.305-1.967 5.714.559.699 1.14 1.374 1.245 2.316.128 1.187-.244 2.188-1.07 3.072-1.84 1.967-.931 5.133 1.664 5.866 1.338.384 2.479-.047 3.468-.966.733-.675 1.582-1.013 2.595-.978 1.734.07 3.049 1.28 3.328 3.073.245 1.536-.78 3.153-2.327 3.689-.221.07-.43.163-.64.233h-.931c-.955-.245-1.723-.78-2.467-1.432a3.153 3.153 0 0 0-4.155-.012c-.745.652-1.501 1.2-2.456 1.444h-.93c-.14-.047-.28-.105-.42-.152-1.128-.349-1.931-1.059-2.35-2.188-.082-.232-.163-.465-.256-.686v-.931c.232-.99.803-1.758 1.454-2.514 1.013-1.164 1.001-2.944-.011-4.108-.652-.745-1.199-1.501-1.443-2.456v-.93c.256-.955.791-1.723 1.443-2.456 1.035-1.175 1.024-2.956-.024-4.155-.663-.721-1.198-1.478-1.431-2.444v-.93c.047-.14.105-.28.151-.42.35-1.128 1.048-1.943 2.177-2.362.232-.081.465-.163.686-.244h.931c.931.244 1.688.756 2.42 1.385 1.176 1.012 2.875 1.012 4.12.046.78-.605 1.548-1.199 2.537-1.431h.931c.931.267 1.676.803 2.41 1.42 1.163.977 2.85.977 4.084.011.768-.593 1.513-1.187 2.467-1.431h.943zM52.228 42.554c0-.698.523-1.198 1.21-1.187.64.012 1.175.547 1.187 1.176.012.652-.547 1.222-1.21 1.222-.675.011-1.187-.512-1.187-1.21z"/>
            <path d="M52.228 32.767c.011-.698.512-1.187 1.222-1.175a1.197 1.197 0 0 1 1.175 1.187c0 .652-.57 1.222-1.222 1.222-.663-.012-1.175-.559-1.175-1.234zM44.652 32.872c0 .687-.524 1.21-1.199 1.199-.663-.012-1.222-.582-1.199-1.234a1.214 1.214 0 0 1 1.199-1.164c.698-.011 1.21.5 1.199 1.199z"/>
            <g>
                <path d="M69.789 39.238c.64 0 1.245-.128 1.815-.373.57-.256 1.176-.593 1.816-1.035l1.804 1.838c-.943.78-1.84 1.315-2.689 1.606-.85.291-1.769.43-2.746.43a8.068 8.068 0 0 1-3.072-.581 7.845 7.845 0 0 1-2.456-1.594 7.507 7.507 0 0 1-1.63-2.374c-.395-.908-.581-1.886-.581-2.933 0-1.106.198-2.13.582-3.084.395-.954.93-1.78 1.629-2.479a7.455 7.455 0 0 1 2.456-1.64c.942-.396 1.966-.583 3.072-.583a8.2 8.2 0 0 1 2.77.478c.884.325 1.769.837 2.676 1.559l-1.804 1.839a12.984 12.984 0 0 0-1.768-1.013 4.553 4.553 0 0 0-1.863-.407c-.698 0-1.373.14-2.013.419-.64.28-1.198.663-1.687 1.152a5.662 5.662 0 0 0-1.14 1.7 5.078 5.078 0 0 0-.42 2.047c0 .664.14 1.292.42 1.897.279.605.663 1.13 1.14 1.595a5.613 5.613 0 0 0 1.687 1.117 4.9 4.9 0 0 0 2.002.419zM83.172 41.705a7.553 7.553 0 0 1-2.921-.57 7.427 7.427 0 0 1-2.42-1.595 7.84 7.84 0 0 1-1.653-2.42 7.482 7.482 0 0 1-.617-3.026c0-1.024.21-2.002.617-2.933a8.288 8.288 0 0 1 1.652-2.455 7.81 7.81 0 0 1 2.421-1.664 7.15 7.15 0 0 1 2.921-.617c1.024 0 2.002.21 2.933.617a8.106 8.106 0 0 1 2.455 1.664 7.83 7.83 0 0 1 1.664 2.455c.408.931.617 1.909.617 2.933 0 1.082-.21 2.095-.617 3.026a7.675 7.675 0 0 1-1.664 2.42c-.698.687-1.524 1.21-2.455 1.595a7.833 7.833 0 0 1-2.933.57zm0-12.732c-.745 0-1.42.14-2.025.42-.617.279-1.14.651-1.594 1.128a5.015 5.015 0 0 0-1.048 1.63 4.982 4.982 0 0 0-.372 1.943c0 .721.128 1.396.372 2.013a5.047 5.047 0 0 0 1.048 1.606c.454.454.977.803 1.594 1.048.617.256 1.292.372 2.025.372.745 0 1.42-.128 2.048-.372a5.047 5.047 0 0 0 1.606-1.048c.454-.454.803-.989 1.048-1.606.256-.617.372-1.292.372-2.013 0-.687-.128-1.327-.372-1.944a5.397 5.397 0 0 0-1.036-1.629 4.999 4.999 0 0 0-1.606-1.129 5.014 5.014 0 0 0-2.06-.419zM95.17 21.91v2.56H92.53v-2.56h2.641zm-2.641 4.596h2.641v15.036H92.53V26.506zM100.35 41.577h-2.643V26.54h2.642l.035 1.804c.116-.186.291-.396.524-.628.232-.245.5-.466.814-.675.315-.21.675-.396 1.094-.547a4.158 4.158 0 0 1 1.408-.222c1.083 0 2.014.21 2.782.617a5.427 5.427 0 0 1 1.897 1.653c.489.686.85 1.49 1.082 2.409.233.908.35 1.862.35 2.84v7.785h-2.677v-7.844c0-.547-.047-1.105-.14-1.687a4.959 4.959 0 0 0-.512-1.583 3.458 3.458 0 0 0-1.036-1.175c-.442-.315-1.024-.466-1.746-.466-.64 0-1.198.128-1.687.396a3.906 3.906 0 0 0-1.222 1.047 4.432 4.432 0 0 0-.733 1.548 7.093 7.093 0 0 0-.245 1.885v7.879h.012zM119.05 26.576c.746 0 1.42.116 2.026.35.616.232 1.14.488 1.582.767a8.15 8.15 0 0 1 1.385 1.083v-9.601h2.677v22.437h-2.677V39.33c-.14.198-.337.442-.605.721-.256.28-.593.547-1.012.815a6.756 6.756 0 0 1-1.455.675 6.053 6.053 0 0 1-1.92.29c-1.083 0-2.06-.209-2.933-.628a7.038 7.038 0 0 1-2.246-1.699 7.757 7.757 0 0 1-1.431-2.467 8.82 8.82 0 0 1-.5-2.932c0-.978.162-1.932.5-2.84a7.198 7.198 0 0 1 1.431-2.409 6.95 6.95 0 0 1 2.246-1.653c.873-.43 1.85-.628 2.933-.628zm0 12.743c.617 0 1.234-.105 1.816-.326a4.914 4.914 0 0 0 1.595-.977c.465-.43.85-.978 1.14-1.641.29-.663.43-1.432.43-2.316 0-.826-.14-1.548-.418-2.165-.28-.616-.652-1.14-1.118-1.547a4.754 4.754 0 0 0-1.594-.931 5.637 5.637 0 0 0-1.862-.315c-.721 0-1.362.152-1.908.466a4.527 4.527 0 0 0-1.374 1.187 5.328 5.328 0 0 0-.826 1.594c-.186.582-.29 1.14-.29 1.688 0 .582.08 1.187.255 1.804.175.616.43 1.187.791 1.699.361.512.815.942 1.374 1.28.57.337 1.233.5 1.99.5zM142.023 38.667c-.803.966-1.71 1.711-2.735 2.258-1.024.547-2.164.815-3.433.815-1.187 0-2.222-.186-3.107-.57-.896-.384-1.64-.908-2.246-1.583-.605-.675-1.047-1.466-1.35-2.386-.302-.92-.454-1.92-.454-3.002 0-1.024.152-1.99.454-2.921a7.198 7.198 0 0 1 1.35-2.433 6.475 6.475 0 0 1 2.246-1.664c.896-.407 1.932-.617 3.107-.617 1.083 0 2.06.21 2.945.629.884.419 1.629 1 2.246 1.745.617.745 1.082 1.63 1.431 2.642.338 1.024.512 2.13.512 3.305h-11.66c.023.664.127 1.269.325 1.816.198.547.489 1.024.873 1.431.384.396.85.722 1.408.943.559.233 1.199.349 1.92.349.699 0 1.339-.128 1.897-.372.559-.256 1.036-.536 1.408-.862.443-.36.827-.768 1.176-1.233l1.687 1.71zm-6.19-9.752c-.641 0-1.223.105-1.735.314-.512.21-.954.49-1.338.827a4.075 4.075 0 0 0-.92 1.175 3.97 3.97 0 0 0-.43 1.35h8.693a5.412 5.412 0 0 0-.57-1.431 4.925 4.925 0 0 0-.943-1.176 4.483 4.483 0 0 0-1.245-.78 4.022 4.022 0 0 0-1.513-.279zM146.725 30.451c0 .245.081.466.256.687.174.221.396.43.675.617.28.186.617.384.99.57.383.186.767.372 1.174.559.547.244 1.094.512 1.665.791.57.29 1.082.617 1.547.978a4.5 4.5 0 0 1 1.13 1.268c.29.477.43 1.036.43 1.653 0 1.222-.466 2.222-1.408 3.002-.943.78-2.246 1.175-3.91 1.175a9.487 9.487 0 0 1-2.305-.267c-.686-.186-1.292-.384-1.792-.617-.5-.233-.884-.442-1.14-.628-.256-.187-.396-.291-.396-.315l1.047-2.013c.245.116.547.256.908.419.36.163.745.303 1.152.43a18.2 18.2 0 0 0 1.269.35c.43.104.85.151 1.245.151.698 0 1.268-.14 1.71-.419.443-.28.664-.698.664-1.268 0-.478-.268-.873-.815-1.187a21.772 21.772 0 0 0-1.955-.978l-.396-.21v.035a38.023 38.023 0 0 1-1.547-.756 6.838 6.838 0 0 1-1.397-.943 4.603 4.603 0 0 1-1.024-1.326c-.256-.512-.396-1.14-.396-1.886 0-1.187.431-2.141 1.28-2.874.85-.733 2.049-1.094 3.597-1.094.663 0 1.268.07 1.803.198.547.128 1.013.28 1.409.43.465.187.884.384 1.268.606l-1.117 2.106c-.361-.175-.85-.372-1.478-.582a5.895 5.895 0 0 0-1.897-.314c-.698 0-1.257.163-1.664.477-.384.326-.582.71-.582 1.175zM155.558 19.175h2.642v22.402h-2.642V19.175zm14.407 22.437h-3.852l-8.24-8.275 6.739-6.738h3.817l-6.738 6.738 8.274 8.275z"/>
            </g>
        </g>
    </g>
</svg>
